<svg width="16" height="17" viewBox="0 0 16 17" fill="none" xmlns="http://www.w3.org/2000/svg">
<path fill-rule="evenodd" clip-rule="evenodd" d="M0 1.38794C0 0.897543 0.397546 0.5 0.887944 0.5H2.62583C2.98891 0.5 3.31542 0.721055 3.45027 1.05817L3.86632 2.0983H15.289C15.7915 2.0983 16.1352 2.60587 15.9485 3.07247L13.854 8.3088C13.6383 8.84817 13.1158 9.20185 12.5349 9.20185H6.06814L5.16674 10.6226H13.3192C13.8096 10.6226 14.2071 11.0201 14.2071 11.5105C14.2071 12.0009 13.8096 12.3985 13.3192 12.3985H3.55178C3.22791 12.3985 2.92973 12.2221 2.77369 11.9384C2.61765 11.6545 2.6285 11.3083 2.80201 11.0348L4.47399 8.39958L2.02451 2.27589H0.887944C0.397546 2.27589 0 1.87835 0 1.38794ZM5.99738 7.42597H12.2944L13.7151 3.87419H4.57667L5.99738 7.42597Z" fill="white"/>
<path d="M5.68284 14.7071C5.68284 15.4918 5.04677 16.1278 4.26213 16.1278C3.4775 16.1278 2.84142 15.4918 2.84142 14.7071C2.84142 13.9225 3.4775 13.2864 4.26213 13.2864C5.04677 13.2864 5.68284 13.9225 5.68284 14.7071Z" fill="white"/>
<path d="M12.7864 16.1278C13.5711 16.1278 14.2071 15.4918 14.2071 14.7071C14.2071 13.9225 13.5711 13.2864 12.7864 13.2864C12.0017 13.2864 11.3657 13.9225 11.3657 14.7071C11.3657 15.4918 12.0017 16.1278 12.7864 16.1278Z" fill="white"/>
</svg>
