<svg width="30" height="32" viewBox="0 0 30 32" fill="none" xmlns="http://www.w3.org/2000/svg">
<path d="M0 16.6478C0 20.6567 1.56146 24.4219 4.39092 27.2569C7.22591 30.0919 10.9911 31.6478 15 31.6478C19.0089 31.6478 22.7741 30.0864 25.6091 27.2569C28.4441 24.4275 30 20.6567 30 16.6478C30 14.9369 29.7176 13.2591 29.1528 11.6589C28.6102 10.1141 27.8184 8.67442 26.7996 7.38427C24.7896 4.83167 21.9601 2.96567 18.8372 2.14064L18.4219 2.0299L18.5161 1.60908C18.5991 1.24363 18.6434 0.867108 18.433 0.59579C18.3444 0.485048 18.1783 0.352158 17.8793 0.352158C17.3865 0.352158 17.1096 0.761903 16.8605 1.1938C16.8328 1.24363 16.5448 1.72536 16.5448 1.72536L16.268 1.70321C15.8361 1.66445 15.4097 1.64784 15 1.64784C10.9911 1.64784 7.22591 3.2093 4.39092 6.0443C1.56146 8.87375 0 12.639 0 16.6478ZM17.1429 1.56478C17.2979 1.33222 17.5305 0.784051 17.8848 0.784051C18.0786 0.784051 18.2447 0.883719 18.1118 1.43743L16.2846 9.97564H20.9247C21.0244 9.97564 21.1185 9.9701 21.2182 9.9701C24.3577 9.9701 26.7165 11.9524 26.7165 15.1805C26.7165 19.9037 22.5858 23.3145 18.0399 23.3145C16.4729 23.3145 13.7652 22.8992 13.7652 20.8616C13.7652 19.4552 15.1163 18.6966 16.4009 18.6966C17.2481 18.6966 18.2226 19.1451 18.2226 20.103C18.2226 21.3821 17.0321 21.67 17.0321 22.2846C17.0321 22.8272 17.7021 22.8272 18.062 22.8771C20.299 22.8771 20.6257 20.3688 21.0908 18.6744L21.5947 16.742C20.8915 17.6279 19.773 18.0764 18.6711 18.0764C16.7386 18.0764 14.7951 16.9247 14.7951 14.8095C14.7951 13.021 15.9911 11.7032 17.5194 10.8948C16.495 10.0975 14.9446 9.78184 13.7763 9.78184C11.4507 9.78184 7.80731 10.8117 7.80731 13.7519C7.80731 14.9037 8.72647 15.701 9.84496 15.701C11.268 15.701 12.6412 14.4385 12.6412 12.9934C12.6412 12.196 12.1429 11.5703 11.3511 11.5482C11.3012 11.5482 11.2514 11.5482 11.2016 11.5482C11.2016 11.5482 11.1517 11.5537 11.124 11.5648C10.9081 11.6257 10.7309 11.825 10.825 11.9468C10.9081 12.0576 11.1185 12.0244 11.1739 11.7364C11.1849 11.6921 11.2126 11.67 11.2514 11.6645C11.2791 11.7364 11.2901 11.8084 11.2901 11.8915C11.2901 12.3787 10.9635 12.938 10.4264 12.938C10.0831 12.938 9.81174 12.6833 9.81174 12.3234C9.81174 11.0775 11.1628 10.3411 12.2813 10.3411C13.3278 10.3411 14.0476 11.1163 14.0476 12.1628C14.0476 14.7431 12.2813 16.3101 10.0775 17.268C8.14507 18.1872 5.8361 19.7763 5.8361 22.2071C5.8361 22.6224 6.01883 23.1262 6.50609 23.1262C6.70543 23.1262 6.84939 22.9989 6.84939 22.7996C6.84939 22.2569 6.32337 22.5449 6.32337 22.0797C6.32337 21.6146 6.72204 21.3433 7.15393 21.3433C8.25581 21.3433 10.1827 23.1262 13.1229 23.1262C13.2669 23.1262 13.4053 23.1207 13.5437 23.1096C13.3887 23.763 13.1672 24.588 13.1672 25.2303C13.1672 26.5925 14.2193 27.1019 15.4264 27.1019C17.608 27.1019 19.2802 25.9336 20.2381 23.2979C20.2492 23.2702 20.3876 23.2702 20.4928 23.2315C20.6202 23.1872 20.4153 23.2481 20.7032 23.1595C20.5759 24.062 19.7785 25.3577 19.2802 25.9336C17.4086 28.1152 14.4518 28.6966 11.722 28.6966C8.60465 28.6966 3.85382 28.1152 3.85382 23.9845C3.85382 23.1262 4.12514 22.2292 4.28018 21.3765L6.81063 10.8948H5.60354C5.27685 10.8948 4.98339 10.8948 4.73422 10.8948H3.13953L3.30011 10.2193L4.36323 10.2027C8.66002 10.2027 14.1141 6.71982 17.1373 1.54817M10.9025 18.3311C9.35216 18.3311 7.94574 19.0731 7.00443 20.258L6.96567 20.2248C7.74086 18.2924 10.3765 17.6999 12.1761 17.5172C12.9956 17.423 13.9203 17.2901 14.8007 17.0465L14.33 19.3167C13.3112 18.9181 12.2204 18.3311 10.897 18.3311" fill="#7BB2B4"/>
</svg>
